<svg width="24" height="26" viewBox="0 0 24 26" fill="none" xmlns="http://www.w3.org/2000/svg">
<g clip-path="url(#clip0_15_167)">
<path d="M18.5 4C16.55 4 14.45 4.4 13 5.5C11.55 4.4 9.45 4 7.5 4C6.05 4 4.51 4.22 3.22 4.79C2.49 5.12 2 5.83 2 6.64V17.92C2 19.22 3.22 20.18 4.48 19.86C5.46 19.61 6.5 19.5 7.5 19.5C9.06 19.5 10.72 19.76 12.06 20.42C12.66 20.72 13.34 20.72 13.93 20.42C15.27 19.75 16.93 19.5 18.49 19.5C19.49 19.5 20.53 19.61 21.51 19.86C22.77 20.19 23.99 19.23 23.99 17.92V6.64C23.99 5.83 23.5 5.12 22.77 4.79C21.49 4.22 19.95 4 18.5 4ZM22 16.73C22 17.36 21.42 17.82 20.8 17.71C20.05 17.57 19.27 17.51 18.5 17.51C16.8 17.51 14.35 18.16 13 19.01V7.5C14.35 6.65 16.8 6 18.5 6C19.42 6 20.33 6.09 21.2 6.28C21.66 6.38 22 6.79 22 7.26V16.73Z" fill="url(#paint0_linear_15_167)"/>
<path d="M14.98 10.51C14.66 10.51 14.37 10.31 14.27 9.98998C14.14 9.59998 14.36 9.16998 14.75 9.04998C16.29 8.54998 18.28 8.38998 20.11 8.59998C20.52 8.64998 20.82 9.01998 20.77 9.42998C20.72 9.83998 20.35 10.14 19.94 10.09C18.32 9.89998 16.55 10.05 15.21 10.48C15.13 10.49 15.05 10.51 14.98 10.51Z" fill="url(#paint1_linear_15_167)"/>
<path d="M14.98 13.17C14.66 13.17 14.37 12.97 14.27 12.65C14.14 12.26 14.36 11.83 14.75 11.71C16.28 11.21 18.28 11.05 20.11 11.26C20.52 11.31 20.82 11.68 20.77 12.09C20.72 12.5 20.35 12.8 19.94 12.75C18.32 12.56 16.55 12.71 15.21 13.14C15.13 13.16 15.05 13.17 14.98 13.17Z" fill="url(#paint2_linear_15_167)"/>
<path d="M14.98 15.83C14.66 15.83 14.37 15.63 14.27 15.31C14.14 14.92 14.36 14.49 14.75 14.37C16.28 13.87 18.28 13.71 20.11 13.92C20.52 13.97 20.82 14.34 20.77 14.75C20.72 15.16 20.35 15.45 19.94 15.41C18.32 15.22 16.55 15.37 15.21 15.8C15.13 15.82 15.05 15.83 14.98 15.83Z" fill="url(#paint3_linear_15_167)"/>
</g>
<defs>
<linearGradient id="paint0_linear_15_167" x1="12.995" y1="4" x2="12.995" y2="20.645" gradientUnits="userSpaceOnUse">
<stop stop-color="#7B001E"/>
<stop offset="1" stop-color="#BF2D50"/>
</linearGradient>
<linearGradient id="paint1_linear_15_167" x1="17.504" y1="8.50989" x2="17.504" y2="10.51" gradientUnits="userSpaceOnUse">
<stop stop-color="#7B001E"/>
<stop offset="1" stop-color="#BF2D50"/>
</linearGradient>
<linearGradient id="paint2_linear_15_167" x1="17.504" y1="11.1699" x2="17.504" y2="13.17" gradientUnits="userSpaceOnUse">
<stop stop-color="#7B001E"/>
<stop offset="1" stop-color="#BF2D50"/>
</linearGradient>
<linearGradient id="paint3_linear_15_167" x1="17.504" y1="13.83" x2="17.504" y2="15.83" gradientUnits="userSpaceOnUse">
<stop stop-color="#7B001E"/>
<stop offset="1" stop-color="#BF2D50"/>
</linearGradient>
<clipPath id="clip0_15_167">
<rect width="24" height="25.0714" fill="white"/>
</clipPath>
</defs>
</svg>
