<svg width="227" height="86" viewBox="0 0 227 86" fill="none" xmlns="http://www.w3.org/2000/svg">
<path d="M129.176 85.528C124.472 85.528 120.888 84.12 118.424 81.304C115.96 78.456 114.728 74.568 114.728 69.64C114.728 66.376 115.288 63.512 116.408 61.048C117.528 58.584 119.16 56.68 121.304 55.336C123.448 53.992 125.992 53.32 128.936 53.32C130.408 53.32 131.848 53.512 133.256 53.896C134.696 54.248 135.928 54.648 136.952 55.096C138.008 55.512 138.536 55.736 138.536 55.768L137.864 59.272C137.64 59.144 137.096 58.904 136.232 58.552C135.368 58.168 134.328 57.8 133.112 57.448C131.928 57.096 130.808 56.92 129.752 56.92C127.96 56.92 126.504 57.32 125.384 58.12C124.264 58.92 123.416 60.232 122.84 62.056C122.296 63.88 122.024 66.328 122.024 69.4C122.024 73.912 122.68 77.128 123.992 79.048C125.304 80.968 127.336 81.928 130.088 81.928C131.624 81.928 132.968 81.608 134.12 80.968C135.304 80.296 136.248 79.576 136.952 78.808C137.688 78.008 138.056 77.56 138.056 77.464L140.168 79.768C140.168 79.928 139.736 80.504 138.872 81.496C138.04 82.488 136.808 83.416 135.176 84.28C133.544 85.112 131.544 85.528 129.176 85.528Z" fill="#141414"/>
<path d="M153.232 85.528C149.648 85.528 146.88 84.44 144.928 82.264C143.008 80.088 142.048 77 142.048 73C142.048 69 143.008 65.912 144.928 63.736C146.88 61.56 149.648 60.472 153.232 60.472C156.848 60.472 159.616 61.56 161.536 63.736C163.488 65.912 164.464 69 164.464 73C164.464 76.968 163.456 80.056 161.44 82.264C159.456 84.44 156.72 85.528 153.232 85.528ZM153.232 82.36C154.288 82.36 155.12 82.056 155.728 81.448C156.368 80.84 156.832 79.864 157.12 78.52C157.408 77.176 157.552 75.336 157.552 73C157.552 70.664 157.408 68.824 157.12 67.48C156.832 66.136 156.384 65.176 155.776 64.6C155.168 63.992 154.32 63.688 153.232 63.688C152.144 63.688 151.296 63.992 150.688 64.6C150.08 65.176 149.632 66.136 149.344 67.48C149.056 68.824 148.912 70.648 148.912 72.952C148.912 75.288 149.056 77.144 149.344 78.52C149.632 79.864 150.08 80.84 150.688 81.448C151.328 82.056 152.176 82.36 153.232 82.36Z" fill="#141414"/>
<path d="M175.475 85.528C173.619 85.528 172.067 85.272 170.819 84.76C169.571 84.216 168.627 83.64 167.987 83.032C167.347 82.424 167.027 82.056 167.027 81.928L168.803 79.432C168.803 79.496 169.059 79.784 169.571 80.296C170.083 80.808 170.723 81.288 171.491 81.736C172.291 82.152 173.171 82.36 174.131 82.36C175.315 82.36 176.227 82.056 176.867 81.448C177.507 80.84 177.827 80.04 177.827 79.048C177.827 78.088 177.491 77.336 176.819 76.792C176.147 76.216 175.139 75.624 173.795 75.016C172.547 74.408 171.539 73.864 170.771 73.384C170.035 72.872 169.395 72.184 168.851 71.32C168.307 70.424 168.035 69.288 168.035 67.912C168.035 65.544 168.851 63.72 170.483 62.44C172.115 61.128 174.131 60.472 176.531 60.472C177.555 60.472 178.579 60.6 179.603 60.856C180.627 61.112 181.475 61.368 182.147 61.624C182.819 61.88 183.251 62.056 183.443 62.152L182.579 65.368C182.419 65.272 182.051 65.08 181.475 64.792C180.899 64.504 180.195 64.232 179.363 63.976C178.563 63.72 177.827 63.592 177.155 63.592C176.163 63.592 175.395 63.832 174.851 64.312C174.307 64.792 174.035 65.432 174.035 66.232C174.035 67.192 174.387 67.976 175.091 68.584C175.827 69.16 176.931 69.784 178.403 70.456C179.715 71.096 180.771 71.688 181.571 72.232C182.371 72.744 183.059 73.448 183.635 74.344C184.211 75.24 184.499 76.36 184.499 77.704C184.499 80.04 183.715 81.928 182.147 83.368C180.611 84.808 178.387 85.528 175.475 85.528Z" fill="#141414"/>
<path d="M196.307 85.528C194.035 85.528 192.355 84.968 191.267 83.848C190.179 82.728 189.635 80.84 189.635 78.184V64.696H187.331V61.816L189.683 61.144L192.755 53.032H196.019V61H201.299V64.696H196.019V76.552C196.019 78.056 196.083 79.208 196.211 80.008C196.371 80.776 196.611 81.32 196.931 81.64C197.251 81.928 197.699 82.072 198.275 82.072C198.915 82.072 199.491 82.008 200.003 81.88C200.515 81.752 200.771 81.672 200.771 81.64L201.155 84.376C201.155 84.408 200.979 84.52 200.627 84.712C200.275 84.904 199.731 85.08 198.995 85.24C198.291 85.432 197.395 85.528 196.307 85.528Z" fill="#141414"/>
<path d="M211.501 85.528C209.261 85.528 207.469 84.968 206.125 83.848C204.781 82.728 204.109 81.192 204.109 79.24C204.109 76.424 205.421 74.392 208.045 73.144C210.701 71.864 213.789 71.08 217.309 70.792V69.4C217.309 67.224 217.005 65.736 216.397 64.936C215.789 64.104 214.765 63.688 213.325 63.688C212.653 63.688 211.885 63.816 211.021 64.072C210.189 64.328 209.453 64.6 208.813 64.888C208.205 65.176 207.805 65.368 207.613 65.464L206.989 62.392C207.181 62.296 207.629 62.104 208.333 61.816C209.069 61.496 209.981 61.192 211.069 60.904C212.189 60.616 213.309 60.472 214.429 60.472C217.437 60.472 219.725 61.112 221.293 62.392C222.893 63.64 223.693 65.8 223.693 68.872V79.768C223.693 81.464 224.029 82.312 224.701 82.312C224.957 82.312 225.261 82.264 225.613 82.168C225.965 82.072 226.205 82.008 226.333 81.976L226.525 84.472C226.365 84.536 225.981 84.648 225.373 84.808C224.765 84.968 224.061 85.128 223.261 85.288C222.493 85.448 221.805 85.528 221.197 85.528C220.269 85.528 219.549 85.304 219.037 84.856C218.525 84.376 218.189 83.608 218.029 82.552H217.789C217.789 82.648 217.565 82.952 217.117 83.464C216.701 83.944 216.029 84.408 215.101 84.856C214.173 85.304 212.973 85.528 211.501 85.528ZM213.613 82.312C214.381 82.312 215.037 82.12 215.581 81.736C216.157 81.352 216.589 80.936 216.877 80.488C217.165 80.008 217.309 79.736 217.309 79.672V73.336C215.165 73.56 213.533 74.072 212.413 74.872C211.325 75.64 210.781 76.824 210.781 78.424C210.781 79.704 211.037 80.68 211.549 81.352C212.061 81.992 212.749 82.312 213.613 82.312Z" fill="#141414"/>
<path d="M16.696 37V5.79998H23.56L36.664 26.968H36.76L36.424 24.808V5.79998H40.552V37H35.368L20.536 13.576H20.44L20.824 16.36V37H16.696Z" fill="#141414"/>
<path d="M50.3616 9.39998C49.4016 9.39998 48.5536 9.07998 47.8176 8.43998C47.0816 7.70398 46.7136 6.79198 46.7136 5.70398C46.7136 4.64798 47.0816 3.75198 47.8176 3.01598C48.4896 2.37598 49.3376 2.05598 50.3616 2.05598C51.3536 2.05598 52.1696 2.35998 52.8096 2.96798C53.5136 3.70398 53.8656 4.61598 53.8656 5.70398C53.8656 6.82398 53.5136 7.75198 52.8096 8.48798C52.1056 9.09598 51.2896 9.39998 50.3616 9.39998ZM47.1456 37V13H53.5296V37H47.1456Z" fill="#141414"/>
<path d="M69.2222 37.528C65.5422 37.528 62.7102 36.472 60.7262 34.36C58.7742 32.248 57.7982 29.176 57.7982 25.144C57.7982 21.24 58.8222 18.152 60.8702 15.88C62.9182 13.608 65.7502 12.472 69.3662 12.472C70.3582 12.472 71.3662 12.616 72.3902 12.904C73.4462 13.16 74.3262 13.448 75.0302 13.768C75.7342 14.056 76.1822 14.248 76.3742 14.344L75.7502 17.416C75.5902 17.32 75.1902 17.144 74.5502 16.888C73.9102 16.6 73.1742 16.328 72.3422 16.072C71.5102 15.816 70.7582 15.688 70.0862 15.688C68.8702 15.688 67.8782 15.944 67.1102 16.456C66.3422 16.968 65.7502 17.912 65.3342 19.288C64.9182 20.632 64.7102 22.552 64.7102 25.048C64.7102 28.6 65.1582 31.032 66.0542 32.344C66.9502 33.656 68.2302 34.312 69.8942 34.312C71.0142 34.312 71.9742 34.072 72.7742 33.592C73.6062 33.08 74.2462 32.552 74.6942 32.008C75.1422 31.432 75.3662 31.096 75.3662 31L77.6222 32.44C77.6222 32.632 77.3342 33.16 76.7582 34.024C76.1822 34.856 75.2702 35.656 74.0222 36.424C72.7742 37.16 71.1742 37.528 69.2222 37.528Z" fill="#141414"/>
<path d="M90.4041 37.528C86.8201 37.528 84.0521 36.44 82.1001 34.264C80.1801 32.088 79.2201 29 79.2201 25C79.2201 21 80.1801 17.912 82.1001 15.736C84.0521 13.56 86.8201 12.472 90.4041 12.472C94.0201 12.472 96.7881 13.56 98.7081 15.736C100.66 17.912 101.636 21 101.636 25C101.636 28.968 100.628 32.056 98.6121 34.264C96.6281 36.44 93.8921 37.528 90.4041 37.528ZM90.4041 34.36C91.4601 34.36 92.2921 34.056 92.9001 33.448C93.5401 32.84 94.0041 31.864 94.2921 30.52C94.5801 29.176 94.7241 27.336 94.7241 25C94.7241 22.664 94.5801 20.824 94.2921 19.48C94.0041 18.136 93.5561 17.176 92.9481 16.6C92.3401 15.992 91.4921 15.688 90.4041 15.688C89.3161 15.688 88.4681 15.992 87.8601 16.6C87.2521 17.176 86.8041 18.136 86.5161 19.48C86.2281 20.824 86.0841 22.648 86.0841 24.952C86.0841 27.288 86.2281 29.144 86.5161 30.52C86.8041 31.864 87.2521 32.84 87.8601 33.448C88.5001 34.056 89.3481 34.36 90.4041 34.36Z" fill="#141414"/>
<path d="M105.927 37V1.19198L112.311 0.807983V37H105.927Z" fill="#141414"/>
<path d="M127.858 37.528C124.306 37.528 121.538 36.552 119.554 34.6C117.602 32.616 116.626 29.56 116.626 25.432C116.626 21.272 117.586 18.088 119.506 15.88C121.426 13.64 124.018 12.52 127.282 12.52C130.258 12.52 132.562 13.464 134.194 15.352C135.858 17.208 136.69 19.88 136.69 23.368C136.69 24.168 136.626 24.84 136.498 25.384C136.402 25.928 136.338 26.264 136.306 26.392H123.394C123.426 29.272 123.842 31.32 124.642 32.536C125.474 33.72 126.802 34.312 128.626 34.312C129.714 34.312 130.674 34.088 131.506 33.64C132.338 33.16 132.994 32.648 133.474 32.104C133.954 31.528 134.194 31.208 134.194 31.144L136.354 32.824C136.354 32.952 136.018 33.416 135.346 34.216C134.706 35.016 133.746 35.768 132.466 36.472C131.218 37.176 129.682 37.528 127.858 37.528ZM130.738 23.272V22.168C130.738 19.736 130.482 18.04 129.97 17.08C129.458 16.088 128.562 15.592 127.282 15.592C126.386 15.592 125.666 15.816 125.122 16.264C124.61 16.712 124.21 17.496 123.922 18.616C123.634 19.704 123.458 21.256 123.394 23.272H130.738Z" fill="#141414"/>
<path d="M9.99996 22.5556C9.99996 24.5193 8.40807 26.1112 6.44438 26.1112C4.48068 26.1112 2.88879 24.5193 2.88879 22.5556C2.88879 20.5919 4.48068 19 6.44438 19C8.40807 19 9.99996 20.5919 9.99996 22.5556Z" fill="#BF2D50"/>
<path d="M7.11117 22.5556C7.11117 24.5193 5.51928 26.1112 3.55558 26.1112C1.59189 26.1112 0 24.5193 0 22.5556C0 20.5919 1.59189 19 3.55558 19C5.51928 19 7.11117 20.5919 7.11117 22.5556Z" fill="#7B001E"/>
</svg>
